<?xml version="1.0" encoding="UTF-8"?>
<!-- Created with Inkscape (http://www.inkscape.org/) -->
<svg width="351.35" height="348.99" version="1.1" viewBox="0 0 351.35 348.99" xml:space="preserve" xmlns="http://www.w3.org/2000/svg" xmlns:cc="http://creativecommons.org/ns#" xmlns:dc="http://purl.org/dc/elements/1.1/" xmlns:rdf="http://www.w3.org/1999/02/22-rdf-syntax-ns#"><metadata><rdf:RDF><cc:Work rdf:about=""><dc:format>image/svg+xml</dc:format><dc:type rdf:resource="http://purl.org/dc/dcmitype/StillImage"/><dc:title/></cc:Work></rdf:RDF></metadata><defs><clipPath id="clipPath831"><path d="M 0,261.745 H 263.511 V 0 H 0 Z"/></clipPath></defs><g transform="matrix(1.3333 0 0 -1.3333 0 348.99)"><g clip-path="url(#clipPath831)"><g transform="translate(108.27 257.68)"><path d="m 0,0 c 19.766,0.226 38.784,-7.527 52.761,-21.502 13.976,-13.976 21.726,-32.996 21.502,-52.762 8.462,21.218 3.475,45.436 -12.674,61.588 C 45.434,3.475 21.219,8.46 0,0" style="fill-rule:evenodd;fill:#231f20"/></g><g transform="translate(91.081 240.49)"><path d="m 0,0 c 19.766,0.226 38.784,-7.527 52.763,-21.502 13.971,-13.977 21.726,-32.997 21.501,-52.762 8.458,21.218 3.472,45.436 -12.678,61.586 C 45.436,3.475 21.218,8.46 0,0" style="fill-rule:evenodd;fill:#231f20"/></g><g transform="translate(73.89 223.3)"><path d="m 0,0 c 19.763,0.225 38.783,-7.527 52.76,-21.502 13.976,-13.977 21.727,-32.997 21.502,-52.761 8.462,21.217 3.476,45.434 -12.674,61.585 C 45.436,3.474 21.218,8.46 0,0" style="fill-rule:evenodd;fill:#231f20"/></g><g transform="translate(56.7 206.11)"><path d="m0 0c19.763 0.226 38.783-7.526 52.76-21.501 13.976-13.978 21.729-32.997 21.502-52.761 8.46 21.216 3.474 45.434-12.676 61.584-16.15 16.153-40.368 21.139-61.586 12.678" style="fill-rule:evenodd;fill:#231f20"/></g><g transform="translate(4.0679 106.33)"><path d="M 0,0 C -0.226,19.768 7.524,38.788 21.501,52.762 35.478,66.738 54.498,74.489 74.262,74.264 53.044,82.724 28.826,77.74 12.676,61.588 -3.477,45.438 -8.462,21.218 0,0" style="fill-rule:evenodd;fill:#231f20"/></g><g transform="translate(21.258 89.138)"><path d="M 0,0 C -0.226,19.763 7.525,38.783 21.502,52.76 35.478,66.736 54.498,74.487 74.262,74.262 53.044,82.722 28.826,77.738 12.676,61.586 -3.477,45.436 -8.462,21.218 0,0" style="fill-rule:evenodd;fill:#231f20"/></g><g transform="translate(38.449 71.949)"><path d="M 0,0 C -0.228,19.763 7.525,38.783 21.502,52.76 35.479,66.734 54.499,74.484 74.262,74.26 53.045,82.72 28.828,77.736 12.676,61.584 -3.477,45.434 -8.46,21.214 0,0" style="fill-rule:evenodd;fill:#231f20"/></g><g transform="translate(55.639 54.756)"><path d="M 0,0 C -0.227,19.764 7.525,38.784 21.502,52.761 35.479,66.737 54.499,74.487 74.263,74.262 53.046,82.723 28.829,77.738 12.676,61.588 -3.476,45.434 -8.46,21.218 0,0" style="fill-rule:evenodd;fill:#231f20"/></g><g transform="translate(155.24 4.0656)"><path d="m0 0c-19.764-0.227-38.786 7.528-52.763 21.501-13.976 13.977-21.726 32.997-21.502 52.76-8.46-21.214-3.475-45.434 12.676-61.584 16.153-16.151 40.37-21.136 61.589-12.677" style="fill-rule:evenodd;fill:#231f20"/></g><g transform="translate(172.43 21.258)"><path d="m0 0c-19.764-0.226-38.784 7.524-52.761 21.501-13.976 13.977-21.726 32.997-21.501 52.761-8.461-21.218-3.476-45.434 12.676-61.588 16.152-16.151 40.368-21.137 61.586-12.674" style="fill-rule:evenodd;fill:#231f20"/></g><g transform="translate(189.62 38.45)"><path d="m0 0c-19.763-0.229-38.787 7.525-52.764 21.498-13.974 13.976-21.725 32.997-21.5 52.76-8.46-21.214-3.476-45.434 12.676-61.584 16.154-16.151 40.37-21.136 61.588-12.674" style="fill-rule:evenodd;fill:#231f20"/></g><g transform="translate(206.81 55.639)"><path d="m0 0c-19.763-0.226-38.783 7.525-52.76 21.502-13.976 13.977-21.727 32.997-21.502 52.76-8.46-21.218-3.476-45.434 12.678-61.588 16.15-16.151 40.366-21.136 61.584-12.674" style="fill-rule:evenodd;fill:#231f20"/></g><g transform="translate(259.44 155.42)"><path d="m0 0c0.226-19.763-7.524-38.783-21.501-52.76-13.977-13.976-32.993-21.727-52.761-21.502 21.218-8.462 45.434-3.476 61.588 12.678 16.151 16.15 21.137 40.367 12.674 61.584" style="fill-rule:evenodd;fill:#231f20"/></g><g transform="translate(242.25 172.61)"><path d="m0 0c0.226-19.764-7.525-38.784-21.502-52.763-13.976-13.972-32.996-21.726-52.76-21.497 21.218-8.463 45.434-3.476 61.584 12.673 16.155 16.151 21.136 40.371 12.678 61.587" style="fill-rule:evenodd;fill:#231f20"/></g><g transform="translate(225.06 189.8)"><path d="m0 0c0.226-19.764-7.525-38.784-21.502-52.76s-32.997-21.727-52.76-21.502c21.218-8.458 45.438-3.476 61.588 12.678 16.151 16.15 21.136 40.366 12.674 61.584" style="fill-rule:evenodd;fill:#231f20"/></g><g transform="translate(207.87 206.99)"><path d="m0 0c0.225-19.765-7.525-38.785-21.502-52.762-13.977-13.976-32.997-21.727-52.761-21.502 21.218-8.46 45.434-3.474 61.585 12.676 16.154 16.152 21.136 40.368 12.678 61.588" style="fill-rule:evenodd;fill:#231f20"/></g></g></g></svg>
