<?xml version="1.0" standalone="no"?>
<!DOCTYPE svg PUBLIC "-//W3C//DTD SVG 20010904//EN"
 "http://www.w3.org/TR/2001/REC-SVG-20010904/DTD/svg10.dtd">
<svg version="1.0" xmlns="http://www.w3.org/2000/svg"
 width="1778.000000pt" height="522.000000pt" viewBox="0 0 1778.000000 522.000000"
 preserveAspectRatio="xMidYMid meet">

<g transform="translate(0.000000,522.000000) scale(0.100000,-0.100000)"
fill="#000000" stroke="none">
<path d="M2240 4409 c-332 -37 -633 -182 -870 -419 -212 -212 -343 -462 -407
-775 -14 -70 -17 -211 -20 -1163 l-4 -1083 1078 4 c1206 3 1142 0 1374 77 211
70 382 173 541 328 215 208 340 429 416 732 l26 105 3 1103 4 1102 -1033 -1
c-568 -1 -1067 -5 -1108 -10z m350 -654 c5 -163 6 -176 17 -139 18 58 82 153
134 198 24 21 76 54 114 72 95 46 183 55 475 52 l235 -3 3 -99 c2 -78 -2 -115
-18 -168 -41 -134 -154 -256 -287 -309 -56 -23 -71 -24 -365 -27 l-308 -3 0
-200 0 -199 343 -2 342 -3 0 -240 0 -240 -342 -3 -343 -2 -2 -493 -3 -492
-280 0 -280 0 -3 1230 c-1 677 0 1236 3 1243 3 10 65 12 282 10 l278 -3 5
-180z"/>
<path d="M5245 3568 c-3 -7 -4 -395 -3 -863 l3 -850 168 -3 167 -2 0 340 0
340 280 0 280 0 0 165 0 165 -280 0 -280 0 0 185 0 185 295 0 295 0 0 175 0
175 -460 0 c-359 0 -462 -3 -465 -12z"/>
<path d="M14800 2715 l0 -865 160 0 160 0 2 303 3 302 25 2 c23 3 41 -24 209
-302 l184 -305 179 0 c167 0 178 1 169 18 -5 9 -118 197 -250 416 -133 220
-241 403 -241 407 0 4 110 107 245 229 135 122 245 223 245 226 0 2 -100 4
-222 4 l-223 -1 -160 -144 -160 -144 -3 359 -2 360 -160 0 -160 0 0 -865z"/>
<path d="M9383 2923 c4 -355 7 -742 7 -860 l0 -213 163 2 162 3 5 415 c6 461
5 451 76 529 58 65 170 90 252 55 50 -21 100 -70 126 -124 20 -43 21 -63 26
-460 l5 -415 163 -3 162 -2 0 448 c0 498 -1 509 -67 634 -42 80 -127 164 -205
202 -157 77 -352 69 -484 -18 l-54 -36 0 245 0 245 -172 0 -171 0 6 -647z"/>
<path d="M10710 2709 l0 -861 308 4 c248 4 321 8 382 22 233 56 372 189 427
410 23 94 8 197 -43 304 -49 101 -104 156 -212 209 -2 0 17 20 42 43 196 181
128 537 -127 667 -108 54 -174 63 -489 63 l-288 0 0 -861z m597 511 c54 -24
83 -70 83 -131 0 -104 -78 -157 -240 -166 l-100 -6 0 162 0 161 108 0 c84 0
116 -5 149 -20z m76 -659 c67 -33 100 -85 105 -165 4 -85 -23 -130 -102 -171
-56 -28 -67 -30 -197 -33 l-139 -4 0 202 0 201 143 -3 c125 -3 148 -6 190 -27z"/>
<path d="M6795 3176 c-58 -18 -86 -34 -127 -74 l-38 -36 0 42 0 42 -155 0
-155 0 2 -647 3 -648 168 -3 167 -2 0 388 c0 410 5 474 44 532 29 45 110 89
176 97 l50 6 0 158 0 159 -47 -1 c-27 0 -66 -6 -88 -13z"/>
<path d="M7545 3170 c-249 -45 -433 -199 -511 -427 -21 -61 -28 -103 -32 -195
-6 -147 13 -238 75 -367 82 -171 238 -299 419 -345 89 -23 252 -21 348 4 101
26 220 88 292 154 69 63 75 48 -70 175 l-103 90 -39 -40 c-21 -22 -68 -54
-104 -72 -59 -29 -73 -32 -160 -32 -84 0 -102 3 -152 28 -91 45 -168 150 -185
252 l-6 35 482 0 481 0 0 90 c0 162 -36 288 -117 412 -73 111 -179 187 -313
224 -68 18 -238 26 -305 14z m251 -310 c25 -10 57 -29 71 -40 25 -19 73 -82
73 -94 0 -4 -133 -6 -295 -6 -162 0 -295 3 -295 8 0 4 14 24 31 45 38 46 105
86 173 104 67 17 185 9 242 -17z"/>
<path d="M12460 3173 c-147 -25 -323 -133 -416 -256 -101 -135 -139 -250 -139
-422 0 -105 4 -131 29 -209 97 -294 380 -491 682 -473 308 18 568 248 630 557
82 414 -250 815 -670 809 -50 -1 -102 -4 -116 -6z m266 -352 c75 -35 134 -93
171 -169 25 -51 28 -68 28 -157 0 -91 -3 -105 -29 -158 -54 -106 -168 -188
-281 -202 -63 -8 -164 15 -217 50 -124 82 -190 225 -167 365 17 108 71 194
157 249 105 67 225 75 338 22z"/>
<path d="M13852 3160 c-119 -32 -206 -84 -302 -180 -157 -156 -227 -352 -201
-560 21 -166 83 -291 202 -410 207 -207 503 -257 767 -129 70 34 102 58 177
133 145 145 205 287 205 485 0 120 -17 190 -76 309 -76 156 -224 285 -394 343
-94 32 -277 37 -378 9z m305 -332 c79 -29 161 -112 193 -193 62 -160 6 -348
-132 -439 -110 -73 -234 -82 -347 -25 -212 106 -267 391 -109 564 107 117 244
150 395 93z"/>
<path d="M8727 3160 c-156 -21 -278 -110 -328 -239 -28 -71 -31 -213 -5 -281
51 -136 121 -180 438 -274 134 -40 177 -91 145 -168 -54 -129 -306 -105 -324
30 l-6 42 -159 0 c-182 0 -176 4 -159 -91 28 -161 132 -280 297 -341 86 -31
292 -31 378 0 165 61 271 183 297 341 19 120 -17 235 -97 315 -56 55 -138 95
-306 152 -132 44 -191 77 -203 115 -10 31 13 76 46 89 40 17 124 7 158 -18
l28 -20 108 108 c59 59 105 112 101 118 -14 24 -132 93 -180 106 -68 19 -158
26 -229 16z"/>
<path d="M16305 3164 c-181 -22 -292 -92 -354 -223 -23 -50 -26 -68 -26 -166
0 -100 3 -115 28 -167 52 -106 131 -157 334 -215 69 -19 142 -42 161 -50 87
-36 110 -117 49 -178 -97 -97 -281 -57 -301 65 l-6 40 -161 0 -162 0 5 -69
c19 -269 306 -443 619 -377 227 48 373 233 356 450 -10 135 -77 231 -207 296
-30 15 -107 44 -170 65 -193 63 -230 88 -230 154 0 68 118 98 192 48 l34 -24
111 108 111 107 -27 25 c-86 79 -234 125 -356 111z"/>
</g>
</svg>
