<svg id="eprice" xmlns="http://www.w3.org/2000/svg" viewBox="0 0 142.43 97.11"><defs><style>.cls-1{fill:#081f2c;}</style></defs><path class="cls-1" d="M221.21,46.85a42,42,0,0,1-1.29,9.53A37.47,37.47,0,0,0,219,70.72c.17,1.1.37,2.19.59,3.28.1.52.12.83-.61,1-4.83,1.11-9.68,2.09-14.52,3.12-3.29.7-6.57,1.5-9.86,2.21-4.33.93-8.67,1.78-13,2.71-3.26.7-6.49,1.5-9.75,2.21s-6.61,1.38-9.91,2.08c-2.53.54-5,1.11-7.58,1.66L144.85,91c-2.44.52-4.88,1-7.32,1.53-3.86.84-7.73,1.7-11.59,2.53-4.62,1-9.25,1.9-13.85,3-4,.92-8,1.77-12.08,2.63-1.25.27-2.49.57-3.74.83-.44.09-.79.09-.92-.54a36.65,36.65,0,0,0-7.24-15.48,39.28,39.28,0,0,1-6.9-12.13A51,51,0,0,1,79,62.7a40.26,40.26,0,0,1,1.21-13.65A36,36,0,0,0,81,35.3c-.17-1.11-.34-2.2-.59-3.29-.14-.64-.06-1,.71-1.14,4.14-.85,8.27-1.75,12.39-2.65,3.55-.77,7.09-1.59,10.64-2.34,5.26-1.12,10.53-2.18,15.78-3.3,3.49-.74,7-1.57,10.44-2.33,4.39-.95,8.78-1.86,13.17-2.8,5.12-1.11,10.23-2.25,15.35-3.35,4.32-.93,8.64-1.83,13-2.76l16.62-3.62q7.48-1.62,15-3.21c.71-.15,1-.08,1.24.81a36.69,36.69,0,0,0,6.51,14.25c2.6,3.4,5.14,6.83,6.74,10.88a48.22,48.22,0,0,1,3.09,13.05A28.9,28.9,0,0,1,221.21,46.85Zm-72.47,4.24a11.51,11.51,0,0,0-.75-4.22,6.46,6.46,0,0,0-6.83-4.21c-2.19.39-4.36.91-6.53,1.39-.6.13-.88.39-.71,1.16,1,4.31,1.89,8.64,2.81,13,.72,3.33,1.44,6.65,2.13,10,.13.66.39.9,1.06.74.83-.2,1.67-.35,2.51-.52.59-.11.89-.33.72-1.06-.63-2.75-1.2-5.51-1.76-8.27-.08-.36-.39-.88.21-1.11s.74.13,1,.51c2.21,2.88,4.48,5.71,6.68,8.59.37.48.62.49,1,.16.76-.61,1.52-1.24,2.3-1.83.48-.37.45-.63.07-1.11-1.91-2.4-3.76-4.86-5.66-7.26-.45-.57-.5-.95,0-1.5A6.76,6.76,0,0,0,148.74,51.09Zm45.93,6c.49-.09.82-.14,1.14-.21,2.85-.61,5.69-1.25,8.54-1.86,3.7-.79,3.17,0,2.39-3.86-.12-.56-.33-.74-.93-.6-2.34.51-4.7.94-7,1.45-.7.15-1.07.14-1.23-.7-.35-1.9-.78-3.79-1.22-5.67-.13-.55.19-.61.56-.69,2-.41,3.91-.83,5.87-1.21.54-.1.74-.29.61-.85a16.53,16.53,0,0,1-.51-2.4c-.09-.89-.54-1-1.26-.82-1.82.41-3.66.73-5.45,1.23-.74.2-.86-.11-1-.64-.26-1.18-.43-2.39-.79-3.53-.31-1,0-1.29.89-1.47,2.25-.43,4.48-.94,6.72-1.41.64-.13,1.07-.33.82-1.15a15.54,15.54,0,0,1-.56-2.5c-.08-.61-.33-.64-.85-.52-3.58.81-7.15,1.6-10.74,2.37-1.69.37-1.68.34-1.31,2q1.42,6.44,2.82,12.87c.69,3.2,1.35,6.4,2,9.61C194.26,56.92,194.41,57.15,194.67,57.09ZM122.75,46.84c-2.44.13-4.75.94-7.15,1.32-.59.1-.58.46-.47.94,1,4.7,1.94,9.43,3,14.11.72,3,1.34,6.08,2,9.12.12.6.3.8.89.66a19.83,19.83,0,0,1,2.5-.52c.91-.09,1-.49.83-1.3-.59-2.55-1.11-5.13-1.67-7.69-.31-1.38-.32-1.38,1-1.68.22-.06.45-.09.67-.14,2.57-.58,4.45-1.88,5.25-4.56a10,10,0,0,0-.06-5.13A6.28,6.28,0,0,0,122.75,46.84Zm48-3.12a17.66,17.66,0,0,0,.34,3.33,22.77,22.77,0,0,0,3.2,9.61c1.59,2.43,3.72,3.94,6.8,3.63,3.56-.36,5.55-2.58,6.78-5.71.32-.8.1-1.2-.73-1.4a11.3,11.3,0,0,1-1.35-.56c-1.59-.64-1.54-.62-2.25,1-.54,1.21-1.25,2.39-2.76,2.5s-2.28-.91-3-2.07a18.78,18.78,0,0,1-2-5.41,18.74,18.74,0,0,1-.5-7.23,2.82,2.82,0,0,1,2-2.45c1.11-.35,1.92.31,2.73.95.5.4.73,1.37,1.37,1.22s1-.83,1.53-1.31c1.61-1.61,1.6-1.62-.06-3.21a7,7,0,0,0-10.17.4C171,38.89,170.8,41.3,170.71,43.72Zm-14.33,0c.56-.16.69.11.78.59.36,1.83.77,3.65,1.16,5.48.58,2.74,1.18,5.49,1.75,8.24.14.69.7,1.47.32,2.07s-1.38.46-2.11.61-.82.55-.61,1.14a8.56,8.56,0,0,1,.46,2.11c.05.79.37,1,1.15.81,2.52-.6,5.05-1.15,7.59-1.67,1.95-.4,1.95-.36,1.63-2.26-.41-2.33-.47-2.38-2.8-1.65-.59.19-.86.05-1-.53-.28-1.31-.58-2.62-.86-3.92-.82-3.77-1.63-7.54-2.47-11.31-.12-.56,0-.87.56-1,.79-.17,1.88-.09,2.25-.7s-.25-1.54-.37-2.35a5.28,5.28,0,0,1-.16-.66c0-.76-.39-.8-1-.66-3,.66-5.94,1.29-8.91,1.92-.48.1-.7.27-.58.79.22,1,.41,2,.62,3,.09.41.38.35.69.3A9.12,9.12,0,0,1,156.38,43.72ZM94.79,59.61a29.33,29.33,0,0,0,.58,4.92,23,23,0,0,0,3.13,8.72c1.29,2,3,3.4,5.48,3.43a6.83,6.83,0,0,0,6.36-3.82c1-1.75,1-1.74-.84-2.45-.61-.24-1-.14-1.09.47a3.89,3.89,0,0,1-.68,1.29,3.75,3.75,0,0,1-6.47.42c-1.66-2-2.28-4.52-2.93-7-.1-.39,0-.66.5-.74,1.06-.18,2.12-.43,3.18-.66,2.5-.55,5-1.13,7.49-1.63.66-.13.71-.42.56-.94l-.54-1.89a16.17,16.17,0,0,0-3.21-6.33,6.36,6.36,0,0,0-9.48-.18C95.19,55.07,94.94,57.41,94.79,59.61Z" transform="translate(-78.79 -4.45)"/><path class="cls-1" d="M144.31,50.71a3.16,3.16,0,0,1-3.76,3.15c-.37-.07-.34-.31-.4-.57-.36-1.62-.73-3.24-1.1-4.86-.15-.65-.14-1.18.73-1.23.32,0,.63-.22.95-.25,2.19-.2,2.86,0,3.52,3A4.23,4.23,0,0,1,144.31,50.71Z" transform="translate(-78.79 -4.45)"/><path class="cls-1" d="M122.55,51c1.49,0,2.23.5,2.58,1.8a5.31,5.31,0,0,1,.23,3.18,2.33,2.33,0,0,1-1.64,1.53s-.07,0-.1,0c-.7,0-1.42.67-2,.31s-.43-1.22-.58-1.87c-.3-1.3-.57-2.62-.86-3.92-.12-.55.07-.8.64-.81S122,50.9,122.55,51Z" transform="translate(-78.79 -4.45)"/><path class="cls-1" d="M97.46,59.59a9.28,9.28,0,0,1,.73-3.82,3.55,3.55,0,0,1,5.68-1.14c1.66,1.47,2.33,3.51,3,5.52.16.48-.26.54-.57.61l-5.37,1.14c-.8.17-1.59.38-2.38.55-.5.11-.86.08-.9-.61S97.44,60.35,97.46,59.59Z" transform="translate(-78.79 -4.45)"/></svg>